<?xml version="1.0" encoding="UTF-8" standalone="no"?>
<!-- Generator: Adobe Illustrator 27.5.0, SVG Export Plug-In . SVG Version: 6.00 Build 0)  -->

<svg
   version="1.1"
   x="0px"
   y="0px"
   viewBox="0 0 291.21091 257.22577"
   xml:space="preserve"
   id="svg85"
   width="291.21091"
   height="257.22577"
   xmlns="http://www.w3.org/2000/svg"
   xmlns:svg="http://www.w3.org/2000/svg"><defs
   id="defs85" />

<g
   id="OBJECTS"
   transform="translate(-37.894376,-28.966472)">
	<g
   id="g21"
   transform="matrix(0.90068366,0.52097207,-0.4974823,0.86007331,-35.81331,-197.47619)">
		
			<linearGradient
   id="SVGID_00000069366347194786218020000013784324611372915328_"
   gradientUnits="userSpaceOnUse"
   x1="279.13599"
   y1="119.1937"
   x2="406.66711"
   y2="119.1937"
   gradientTransform="matrix(0.7949,-0.6068,0.6068,0.7949,-17.7633,225.883)">
			<stop
   offset="0"
   style="stop-color:#598DE5"
   id="stop3" />
			<stop
   offset="1"
   style="stop-color:#65E5AA"
   id="stop4" />
		</linearGradient>
		<path
   style="opacity:0.2;fill:url(#SVGID_00000069366347194786218020000013784324611372915328_)"
   d="m 265.814,122.103 c 1.864,14.785 11.05,45.089 32.227,33.823 21.177,-11.266 21.244,-24.51 43.402,-19.185 22.157,5.325 56.505,-8.44 44.709,-45.618 -11.796,-37.178 -45.242,-43.295 -62.475,-21.106 -16.538,21.294 -26.109,16.162 -43.182,23.918 -17.073,7.756 -14.681,28.168 -14.681,28.168 z"
   id="path4" />
		
			<linearGradient
   id="SVGID_00000144322373049596639430000002170714114178342552_"
   gradientUnits="userSpaceOnUse"
   x1="301.77271"
   y1="158.3828"
   x2="468.5799"
   y2="158.3828">
			<stop
   offset="0"
   style="stop-color:#4D7AC7"
   id="stop5" />
			<stop
   offset="1"
   style="stop-color:#58C793"
   id="stop6" />
		</linearGradient>
		<path
   style="fill:url(#SVGID_00000144322373049596639430000002170714114178342552_)"
   d="m 301.775,195.344 c 0.27,27.492 65.236,53.315 123.849,4.967 58.613,-48.348 46.034,-96.364 27.485,-105.305 -42.732,-20.598 -35.433,19.869 -75.501,50.569 -38.718,29.665 -76.164,15.992 -75.833,49.769 z"
   id="path6" />
		
			<linearGradient
   id="SVGID_00000123404858967710738100000014955251200503283585_"
   gradientUnits="userSpaceOnUse"
   x1="301.44891"
   y1="135.5938"
   x2="456.63669"
   y2="135.5938"
   gradientTransform="matrix(1.0137,-0.569,0.4895,0.872,-90.0693,239.8169)">
			<stop
   offset="0"
   style="stop-color:#598DE5"
   id="stop7" />
			<stop
   offset="1"
   style="stop-color:#65E5AA"
   id="stop8" />
		</linearGradient>
		<path
   style="fill:url(#SVGID_00000123404858967710738100000014955251200503283585_)"
   d="m 269.903,122.133 c -17.266,63.643 27.88,53.36 43.531,84.087 15.651,30.727 103.8,1.912 125.548,-52.557 21.748,-54.469 -17.794,-88.622 -54.786,-81.944 -36.992,6.678 -27.424,19.178 -69.343,25.182 -29.382,4.208 -42.514,16.253 -44.95,25.232 z"
   id="path8" />
		
			<linearGradient
   id="SVGID_00000142895374303262520780000018382032418761492415_"
   gradientUnits="userSpaceOnUse"
   x1="420.55069"
   y1="211.9043"
   x2="452.70251"
   y2="211.9043">
			<stop
   offset="0"
   style="stop-color:#4D7AC7"
   id="stop9" />
			<stop
   offset="1"
   style="stop-color:#58C793"
   id="stop10" />
		</linearGradient>
		<path
   style="fill:url(#SVGID_00000142895374303262520780000018382032418761492415_)"
   d="m 421.901,214.37 c -3.204,3.487 -1.505,16.841 13.924,13.924 15.43,-2.917 20.581,-30.643 14.207,-32.929 -6.374,-2.286 -6.041,10.914 -14.697,14.584 -8.656,3.669 -10.236,0.94 -13.434,4.421 z"
   id="path10" />
		
			<linearGradient
   id="SVGID_00000045601592749184916190000010706085640200488850_"
   gradientUnits="userSpaceOnUse"
   x1="427.69791"
   y1="90.934898"
   x2="450.4686"
   y2="90.934898"
   gradientTransform="matrix(-0.2391,-0.971,0.971,-0.2391,423.2199,500.1028)">
			<stop
   offset="0"
   style="stop-color:#598DE5"
   id="stop11" />
			<stop
   offset="1"
   style="stop-color:#65E5AA"
   id="stop12" />
		</linearGradient>
		<path
   style="fill:url(#SVGID_00000045601592749184916190000010706085640200488850_)"
   d="m 416.898,59.522 c 3.101,-4.532 -10.007,-24.813 -18.603,-16.016 -8.597,8.796 12.189,25.388 18.603,16.016 z"
   id="path12" />
		
			<linearGradient
   id="SVGID_00000044174247758159974320000013750073291131558295_"
   gradientUnits="userSpaceOnUse"
   x1="317.2883"
   y1="-59.979301"
   x2="340.0589"
   y2="-59.979301"
   gradientTransform="matrix(-0.2391,-0.971,0.971,-0.2391,423.2199,500.1028)">
			<stop
   offset="0"
   style="stop-color:#598DE5"
   id="stop13" />
			<stop
   offset="1"
   style="stop-color:#65E5AA"
   id="stop14" />
		</linearGradient>
		<path
   style="fill:url(#SVGID_00000044174247758159974320000013750073291131558295_)"
   d="m 296.756,202.812 c 3.101,-4.532 -10.007,-24.813 -18.603,-16.016 -8.597,8.796 12.189,25.388 18.603,16.016 z"
   id="path14" />
		
			<linearGradient
   id="SVGID_00000036215448146663567150000001335842666098808510_"
   gradientUnits="userSpaceOnUse"
   x1="360.12701"
   y1="63.5093"
   x2="403.79819"
   y2="63.5093"
   gradientTransform="matrix(0.9902,-0.1393,0.1393,0.9902,-9.7947,53.6217)">
			<stop
   offset="0"
   style="stop-color:#598DE5"
   id="stop15" />
			<stop
   offset="1"
   style="stop-color:#65E5AA"
   id="stop16" />
		</linearGradient>
		<path
   style="fill:url(#SVGID_00000036215448146663567150000001335842666098808510_)"
   d="m 357.487,74.382 c 5.635,5.638 5.656,-4.272 14.779,-7.648 9.598,-3.551 33.847,3.071 24.721,-10.483 -10.054,-14.933 -46.977,10.65 -39.5,18.131 z"
   id="path16" />
		<g
   id="g17">
			<text
   transform="translate(339.3198,141.1093)"
   id="text17"><tspan
     x="0"
     y="0"
     style="font-size:12px;font-family:Gilroy-ExtraBold;fill:#ffffff"
     id="tspan16" /></text>
		</g>
		
		<path
   style="fill:#ffffff"
   d="m 449.503,153.583 c 0,0 3.199,0 3.199,-4.799 0,0 0,4.799 3.2,4.799 0,0 -3.2,0 -3.2,4.799 0,0.001 0,-4.799 -3.199,-4.799 z"
   id="path18" />
		<path
   style="fill:#ffffff"
   d="m 301.951,214.527 c 0,0 3.2,0 3.2,-4.799 0,0 0,4.799 3.199,4.799 0,0 -3.199,0 -3.199,4.799 -0.001,0 -0.001,-4.799 -3.2,-4.799 z"
   id="path19" />
		<path
   style="fill:#ffffff"
   d="m 403.603,228.708 c 0,0 3.2,0 3.2,-4.799 0,0 0,4.799 3.2,4.799 0,0 -3.2,0 -3.2,4.799 -10e-4,0 -10e-4,-4.799 -3.2,-4.799 z"
   id="path20" />
		
	</g>
	<g
   id="g39"
   transform="translate(-44.371405,-101.0682)">
		
			<linearGradient
   id="SVGID_00000107547224739268783320000007946848546501981572_"
   gradientUnits="userSpaceOnUse"
   x1="280.22211"
   y1="339.7645"
   x2="445.4368"
   y2="339.7645"
   gradientTransform="translate(-115.85867,-66.146261)">
			<stop
   offset="0"
   style="stop-color:#C7C64D"
   id="stop21" />
			<stop
   offset="1"
   style="stop-color:#C7A458"
   id="stop22" />
		</linearGradient>
		<path
   style="fill:url(#SVGID_00000107547224739268783320000007946848546501981572_)"
   d="m 171.51733,300.74674 c 14.58,29.594 44.685,45.777 89.467,11.705 15.194,-11.561 39.989,0.834 56.255,-17.466 16.267,-18.3 25.18,-76.427 -30.839,-79.3 -13.217,-0.678 -32.872,13.217 -67.439,13.556 -34.567,0.339 -70.15,25.416 -47.444,71.505 z"
   id="path22" />
		
			<linearGradient
   id="SVGID_00000169523011925873888950000001378654243835830712_"
   gradientUnits="userSpaceOnUse"
   x1="284.2218"
   y1="338.9556"
   x2="423.4924"
   y2="338.9556"
   gradientTransform="translate(-76.828266,-52.588332)">
			<stop
   offset="0"
   style="stop-color:#E5E459"
   id="stop23" />
			<stop
   offset="1"
   style="stop-color:#E5BC65"
   id="stop24" />
		</linearGradient>
		<path
   style="opacity:0.2;fill:url(#SVGID_00000169523011925873888950000001378654243835830712_)"
   d="m 213.60073,237.90867 c -9.443,12.602 -10.621,50.531 14.555,62.349 25.176,11.818 58.313,95.605 109.754,18.338 15.735,-23.635 10.658,-63.229 -18.489,-71.721 -25.177,-7.335 -38.157,-0.216 -57.039,-16.924 -18.882,-16.708 -39.338,-4.644 -48.781,7.958 z"
   id="path24" />
		
			<linearGradient
   id="SVGID_00000073002423780785860530000016138628684049683623_"
   gradientUnits="userSpaceOnUse"
   x1="270.54099"
   y1="348.11871"
   x2="454.8826"
   y2="348.11871"
   gradientTransform="matrix(0.9849,-0.1729,0.1729,0.9849,-190.11543,18.94067)">
			<stop
   offset="0"
   style="stop-color:#E5E459"
   id="stop25" />
			<stop
   offset="1"
   style="stop-color:#E5BC65"
   id="stop26" />
		</linearGradient>
		<path
   style="fill:url(#SVGID_00000073002423780785860530000016138628684049683623_)"
   d="m 133.73148,298.90967 c 5.658,27.081 44.632,27.081 73.851,32.966 27.129,5.465 69.222,60.163 107.031,-10.555 26.851,-50.221 -45.196,-87.269 -93.878,-85.944 -48.682,1.325 -93.352,33.147 -87.004,63.533 z"
   id="path26" />
		
			<linearGradient
   id="SVGID_00000167382361805271160430000001988867814013574823_"
   gradientUnits="userSpaceOnUse"
   x1="325.39551"
   y1="271.1228"
   x2="415.42511"
   y2="271.1228"
   gradientTransform="matrix(0.9347684,-0.35520796,0.35520796,0.9347684,-308.1312,27.940043)">
			<stop
   offset="0"
   style="stop-color:#E5E459"
   id="stop27" />
			<stop
   offset="1"
   style="stop-color:#E5BC65"
   id="stop28" />
		</linearGradient>
		<path
   style="fill:url(#SVGID_00000167382361805271160430000001988867814013574823_)"
   d="m 94.46806,171.07518 c 3.44933,14.76475 27.3629,-11.07524 37.28608,-15.12661 9.92318,-4.05138 48.45237,-3.47518 48.93531,-10.93589 0.48247,-7.46159 -96.355015,-17.30917 -86.22139,26.0625 z"
   id="path28" />
		
			<linearGradient
   id="SVGID_00000114031279257198021080000000885340444047403192_"
   gradientUnits="userSpaceOnUse"
   x1="425.49451"
   y1="272.88559"
   x2="440.93909"
   y2="272.88559"
   gradientTransform="translate(-94.905505,-48.890715)">
			<stop
   offset="0"
   style="stop-color:#E5E459"
   id="stop29" />
			<stop
   offset="1"
   style="stop-color:#E5BC65"
   id="stop30" />
		</linearGradient>
		<path
   style="fill:url(#SVGID_00000114031279257198021080000000885340444047403192_)"
   d="m 333.03549,215.18629 c 4.48,-2.478 19.367,11.514 9.918,16.937 -9.45,5.422 -16.211,-13.456 -9.918,-16.937 z"
   id="path30" />
		
			<linearGradient
   id="SVGID_00000054225228088186495580000012066720524402745019_"
   gradientUnits="userSpaceOnUse"
   x1="375.95941"
   y1="408.3963"
   x2="391.40399"
   y2="408.3963"
   gradientTransform="matrix(0.9014,-0.4331,0.4331,0.9014,-193.21279,128.81733)">
			<stop
   offset="0"
   style="stop-color:#E5E459"
   id="stop31" />
			<stop
   offset="1"
   style="stop-color:#E5BC65"
   id="stop32" />
		</linearGradient>
		<path
   style="fill:url(#SVGID_00000054225228088186495580000012066720524402745019_)"
   d="m 320.92021,325.10273 c 2.965,-4.174 22.443,1.991 16.274,10.971 -6.169,8.98 -20.438,-5.108 -16.274,-10.971 z"
   id="path32" />
		
		
			<linearGradient
   id="SVGID_00000109001706371123475930000000892145678612593334_"
   gradientUnits="userSpaceOnUse"
   x1="272.93521"
   y1="291.6944"
   x2="286.6604"
   y2="291.6944">
			<stop
   offset="0"
   style="stop-color:#E5E459"
   id="stop33" />
			<stop
   offset="1"
   style="stop-color:#E5BC65"
   id="stop34" />
		</linearGradient>
		
			<ellipse
   style="fill:url(#SVGID_00000109001706371123475930000000892145678612593334_)"
   cx="279.798"
   cy="291.694"
   rx="6.8629999"
   ry="7.4679999"
   id="ellipse34" />
		<path
   style="fill:#ffffff"
   d="m 294.021,274.358 c 0,0 3.2,0 3.2,-4.799 0,0 0,4.799 3.2,4.799 0,0 -3.2,0 -3.2,4.799 0,0.001 0,-4.799 -3.2,-4.799 z"
   id="path34" />
		
		
		<path
   style="fill:#ffffff"
   d="m 277.023,373.238 c 0,0 3.2,0 3.2,-4.799 0,0 0,4.799 3.2,4.799 0,0 -3.2,0 -3.2,4.799 -0.001,0 -0.001,-4.799 -3.2,-4.799 z"
   id="path37" />
		
		
	</g>
	<g
   id="g54"
   transform="rotate(-5.4252397,138.65131,137.41292)">
		
			<linearGradient
   id="SVGID_00000174592518392139897190000006190313308489470640_"
   gradientUnits="userSpaceOnUse"
   x1="59.637501"
   y1="164.63181"
   x2="202.6982"
   y2="164.63181"
   gradientTransform="matrix(1.116,0.7003,-0.616,0.9817,88.1758,-95.9873)">
			<stop
   offset="0"
   style="stop-color:#E559BD"
   id="stop39" />
			<stop
   offset="1"
   style="stop-color:#9765E5"
   id="stop40" />
		</linearGradient>
		<path
   style="opacity:0.2;fill:url(#SVGID_00000174592518392139897190000006190313308489470640_)"
   d="m 38.693,154.633 c 12.904,46.953 79.631,88.207 140.265,70.576 60.634,-17.631 59.59,-74.302 15.942,-111.083 -43.648,-36.781 -49.667,1.37 -102.568,-3.651 -52.901,-5.022 -59.097,24.297 -53.639,44.158 z"
   id="path40" />
		
			<linearGradient
   id="SVGID_00000035497446338052719990000015303851404128336823_"
   gradientUnits="userSpaceOnUse"
   x1="58.386501"
   y1="124.9392"
   x2="240.22009"
   y2="124.9392">
			<stop
   offset="0"
   style="stop-color:#C74DA4"
   id="stop41" />
			<stop
   offset="1"
   style="stop-color:#8358C7"
   id="stop42" />
		</linearGradient>
		<path
   style="fill:url(#SVGID_00000035497446338052719990000015303851404128336823_)"
   d="m 70.148,83.95 c -28.563,30.076 -3.677,92.296 59.202,89.354 62.879,-2.942 64.717,39.345 101.856,-0.368 22.218,-23.757 1.103,-75.013 -38.61,-78.323 C 152.883,91.303 125.672,25.483 70.148,83.95 Z"
   id="path42" />
		
			<linearGradient
   id="SVGID_00000151514852756314649890000011565128136837235103_"
   gradientUnits="userSpaceOnUse"
   x1="65.706902"
   y1="150.81371"
   x2="228.1398"
   y2="150.81371">
			<stop
   offset="0"
   style="stop-color:#E559BD"
   id="stop43" />
			<stop
   offset="1"
   style="stop-color:#9765E5"
   id="stop44" />
		</linearGradient>
		<path
   style="fill:url(#SVGID_00000151514852756314649890000011565128136837235103_)"
   d="m 90.74,202.353 c 65.82,31.991 97.391,0.326 121.957,-22.76 27.14,-25.505 11.542,-53.263 5.272,-66.226 -6.27,-12.963 -16.189,-23.584 -56.995,-15.812 -15.444,2.942 -48.019,-30.997 -75.381,4.413 -12.502,16.179 -3.677,27.211 -16.915,56.26 -13.238,29.049 22.062,44.125 22.062,44.125 z"
   id="path44" />
		
			<linearGradient
   id="SVGID_00000139281800274093789380000004211015703381415823_"
   gradientUnits="userSpaceOnUse"
   x1="159.4794"
   y1="57.810501"
   x2="193.01151"
   y2="57.810501">
			<stop
   offset="0"
   style="stop-color:#E559BD"
   id="stop45" />
			<stop
   offset="1"
   style="stop-color:#9765E5"
   id="stop46" />
		</linearGradient>
		<path
   style="fill:url(#SVGID_00000139281800274093789380000004211015703381415823_)"
   d="m 172.126,69.827 c 4.361,-0.944 7.579,-4.358 14.211,-4.074 6.632,0.284 13.736,-15.388 -7.713,-19.8 -23.653,-4.866 -24.877,27.853 -6.498,23.874 z"
   id="path46" />
		
			<linearGradient
   id="SVGID_00000013890194899693188110000010333413190065248179_"
   gradientUnits="userSpaceOnUse"
   x1="182.5699"
   y1="77.114799"
   x2="196.6176"
   y2="77.114799">
			<stop
   offset="0"
   style="stop-color:#E559BD"
   id="stop47" />
			<stop
   offset="1"
   style="stop-color:#9765E5"
   id="stop48" />
		</linearGradient>
		<path
   style="fill:url(#SVGID_00000013890194899693188110000010333413190065248179_)"
   d="m 182.74,73.715 c -1.414,2.291 6.251,13.8 12.443,6.487 6.193,-7.313 -9.494,-11.264 -12.443,-6.487 z"
   id="path48" />
		
			<linearGradient
   id="SVGID_00000042737263334211970180000008213337658779483283_"
   gradientUnits="userSpaceOnUse"
   x1="21.747801"
   y1="171.59979"
   x2="32.811001"
   y2="171.59979"
   gradientTransform="matrix(0.3146,0.9492,-0.9492,0.3146,212.63,71.0586)">
			<stop
   offset="0"
   style="stop-color:#E559BD"
   id="stop49" />
			<stop
   offset="1"
   style="stop-color:#9765E5"
   id="stop50" />
		</linearGradient>
		<path
   style="fill:url(#SVGID_00000042737263334211970180000008213337658779483283_)"
   d="m 59.144,145.119 c -2.619,-0.622 -10.818,6.622 -1.929,10.2 8.889,3.578 7.39,-8.903 1.929,-10.2 z"
   id="path50" />
		<text
   transform="translate(103.7057,147.0935)"
   id="text51" />
		
		
		<path
   style="fill:#ffffff"
   d="m 206.79,198.659 c 0,0 3.2,0 3.2,-4.799 0,0 0,4.799 3.2,4.799 0,0 -3.2,0 -3.2,4.799 0,0 0,-4.799 -3.2,-4.799 z"
   id="path53" />
		<path
   style="fill:#ffffff"
   d="m 80.425,210.663 c 0,0 3.2,0 3.2,-4.799 0,0 0,4.799 3.2,4.799 0,0 -3.2,0 -3.2,4.799 -0.001,0 -0.001,-4.799 -3.2,-4.799 z"
   id="path54" />
	</g>
	<g
   id="g74">
		
			<linearGradient
   id="SVGID_00000152961582299529293710000004307552446066116273_"
   gradientUnits="userSpaceOnUse"
   x1="126.9807"
   y1="406.5043"
   x2="160.5128"
   y2="406.5043"
   gradientTransform="matrix(-0.86102029,-1.1877668,1.086964,-0.31111437,-256.7194,507.16149)">
			<stop
   offset="0"
   style="stop-color:#E59559"
   id="stop54" />
			<stop
   offset="1"
   style="stop-color:#E56565"
   id="stop55" />
		</linearGradient>
		<path
   style="fill:url(#SVGID_00000152961582299529293710000004307552446066116273_);stroke-width:1.24864"
   d="m 77.990632,211.09201 c -4.781347,-4.88581 -11.263162,-7.64634 -16.66394,-15.61232 -5.401374,-7.96517 -28.555119,-11.52947 -14.88143,15.32246 15.07624,29.60904 51.695907,20.88223 31.54537,0.28986 z"
   id="path55" />
		
			<linearGradient
   id="SVGID_00000122687573947526961980000014637744548926848924_"
   gradientUnits="userSpaceOnUse"
   x1="47.027802"
   y1="332.57401"
   x2="201.3868"
   y2="332.57401"
   gradientTransform="rotate(162.02304,275.78507,366.02639)">
			<stop
   offset="0"
   style="stop-color:#C7814D"
   id="stop56" />
			<stop
   offset="1"
   style="stop-color:#C75858"
   id="stop57" />
		</linearGradient>
		
		
			<linearGradient
   id="SVGID_00000089574709817054946750000005252270330527571586_"
   gradientUnits="userSpaceOnUse"
   x1="43.210701"
   y1="330.3959"
   x2="216.5011"
   y2="330.3959"
   gradientTransform="matrix(-0.78313325,-0.64820501,0.59655898,-0.72073675,30.135459,532.32013)">
			<stop
   offset="0"
   style="stop-color:#E59559"
   id="stop58" />
			<stop
   offset="1"
   style="stop-color:#E56565"
   id="stop59" />
		</linearGradient>
		<path
   style="opacity:0.2;fill:url(#SVGID_00000089574709817054946750000005252270330527571586_);stroke-width:0.975257"
   d="M 206.91288,206.13139 C 191.23082,169.37108 153.19645,188.98067 118.58918,170.97634 83.981916,152.972 42.595169,136.80485 43.845744,192.46267 c 1.250568,55.65782 83.249046,85.2216 117.480176,79.86073 34.23114,-5.36087 64.06396,-22.87722 45.58696,-66.19201 z"
   id="path59" />
		
			<linearGradient
   id="SVGID_00000132794378058698335440000018140278902793433990_"
   gradientUnits="userSpaceOnUse"
   x1="33.292301"
   y1="336.07159"
   x2="219.97639"
   y2="336.07159"
   gradientTransform="translate(142.97453,63.270337)">
			<stop
   offset="0"
   style="stop-color:#E59559"
   id="stop60" />
			<stop
   offset="1"
   style="stop-color:#E56565"
   id="stop61" />
		</linearGradient>
		
		
			<linearGradient
   id="SVGID_00000082362272830469205820000007595867339792536493_"
   gradientUnits="userSpaceOnUse"
   x1="200.17979"
   y1="394.87891"
   x2="231.62379"
   y2="394.87891"
   gradientTransform="translate(169.26869,-168.85785)">
			<stop
   offset="0"
   style="stop-color:#E59559"
   id="stop62" />
			<stop
   offset="1"
   style="stop-color:#E56565"
   id="stop63" />
		</linearGradient>
		
		
			<linearGradient
   id="SVGID_00000121277556024582014540000013766933549662031776_"
   gradientUnits="userSpaceOnUse"
   x1="180.60381"
   y1="269.38519"
   x2="212.04781"
   y2="269.38519"
   gradientTransform="matrix(0.73496869,0.67810601,-0.67810601,0.73496869,277.58765,-58.658581)">
			<stop
   offset="0"
   style="stop-color:#E59559"
   id="stop64" />
			<stop
   offset="1"
   style="stop-color:#E56565"
   id="stop65" />
		</linearGradient>
		<path
   style="fill:url(#SVGID_00000121277556024582014540000013766933549662031776_)"
   d="m 218.6102,273.3894 c -0.93476,-4.42044 4.41818,-1.76631 13.27107,-8.33319 8.85219,-6.56616 26.29706,-9.77917 24.1271,8.54155 -2.16997,18.32072 -34.12972,15.25504 -37.39817,-0.20836 z"
   id="path65" />
		
			<linearGradient
   id="SVGID_00000031183861654484688090000007913949791543097518_"
   gradientUnits="userSpaceOnUse"
   x1="180.64301"
   y1="418.33691"
   x2="195.4149"
   y2="418.33691"
   gradientTransform="translate(-42.72802,-85.866886)">
			<stop
   offset="0"
   style="stop-color:#E59559"
   id="stop66" />
			<stop
   offset="1"
   style="stop-color:#E56565"
   id="stop67" />
		</linearGradient>
		
		
			<linearGradient
   id="SVGID_00000031885924467313751950000009542898451533748892_"
   gradientUnits="userSpaceOnUse"
   x1="37.3265"
   y1="287.3215"
   x2="52.0984"
   y2="287.3215"
   gradientTransform="matrix(0.6069,-0.7948,0.7948,0.6069,-218.9445,150.7137)">
			<stop
   offset="0"
   style="stop-color:#E59559"
   id="stop68" />
			<stop
   offset="1"
   style="stop-color:#E56565"
   id="stop69" />
		</linearGradient>
		
		
		
		
		
		
		
	</g>
</g>

</svg>
